<svg xmlns="http://www.w3.org/2000/svg" width="82" height="32" viewBox="0 0 82 32" fill="none">
<g clip-path="url(#clip0_416_1234)">
<path d="M48.5538 13.2164C49.2312 13.2164 49.7401 12.9323 50.0882 12.542V10.9936C48.841 11.07 47.625 11.3838 47.625 12.4055C47.625 12.887 47.9996 13.2164 48.5538 13.2164ZM50.0882 9.77678V9.07278C50.0882 8.46946 49.7401 8.10966 48.9752 8.10966C48.2103 8.10966 47.3986 8.42654 46.4074 8.90576L45.6269 7.28312C46.7071 6.74381 47.9684 6.36839 49.0665 6.36839C51.3776 6.36839 52.2798 7.49385 52.2798 9.14615V12.5116C52.2798 12.9448 52.5366 13.143 52.9417 13.143V14.658C51.4236 14.658 50.7922 14.4324 50.3411 13.6667C49.6675 14.3871 48.9175 14.7922 47.8357 14.7922C46.423 14.7922 45.4318 13.9383 45.4318 12.6615C45.4318 10.9022 47.0974 9.98751 50.0882 9.77678V9.77678ZM54.3013 6.5479H56.3743L56.4781 7.47824C57.0665 6.86556 57.9204 6.35356 58.9288 6.35356C60.7317 6.35356 61.4966 7.46342 61.4966 9.28351V14.6127H59.2894V9.22185C59.2894 8.4999 58.9873 8.00585 58.2373 8.00585C57.5606 8.00585 56.9752 8.35005 56.4937 8.95024V14.6127H54.3013V6.5479ZM41.6402 4.10029V11.1005C41.6402 12.1791 41.1126 12.7957 40.1979 12.7957C39.5813 12.7957 39.1005 12.4937 38.7227 11.984L37.2164 13.3475C37.9938 14.2864 39.0451 14.7953 40.3165 14.7953C42.5089 14.7953 43.9083 13.5481 43.9083 11.1426V4.10029H41.6402ZM41.4022 21.4388C40.2494 21.1461 39.2527 20.8925 39.2527 20.0363C39.2527 19.3229 39.9356 18.8414 40.951 18.8414C41.9048 18.8414 42.8866 19.0755 43.7951 19.5149L44.585 17.8353C43.344 17.2554 42.1186 16.9721 40.8441 16.9721C38.5846 16.9721 37.0057 18.2466 37.0057 20.0667C37.0057 22.3809 38.8991 22.8718 40.5725 23.3073C41.7432 23.6117 42.7555 23.8747 42.7555 24.7528C42.7555 25.5208 42.082 25.9781 40.951 25.9781C39.9723 25.9781 38.8718 25.6488 37.8408 25.0455L36.8199 26.7219C37.9415 27.4088 39.5602 27.8474 40.9659 27.8474C43.4572 27.8474 45.0057 26.6494 45.0057 24.7223C45.0057 22.3473 43.0084 21.8439 41.4022 21.4388V21.4388ZM46.7828 21.161H45.506V19.6H46.7828V17.5879H48.9908V19.6H50.7953V21.161H48.9908V25.1727C48.9908 25.7713 49.2164 26.0726 49.7284 26.0726C50.1343 26.0726 50.5089 25.9383 50.8226 25.7136L51.6343 27.0326C50.9581 27.5529 50.1304 27.8379 49.2773 27.8443C47.5938 27.8443 46.7828 27.0209 46.7828 25.2164V21.161ZM52.6365 19.6H54.6642L54.8133 20.8472C55.4299 19.7647 56.1947 19.3744 57.1126 19.3744C57.4872 19.3744 57.8322 19.4353 58.1038 19.5391L57.7862 21.5512C57.44 21.4272 57.0744 21.3664 56.7067 21.3717C55.881 21.3717 55.3253 21.8837 54.8289 22.8133V27.664H52.6365V19.6ZM76.1979 21.161H74.9202V19.6H76.1979V17.5879H78.4051V19.6H80.2104V21.161H78.4051V25.1727C78.4051 25.7713 78.6314 26.0726 79.1395 26.0726C79.5454 26.0726 79.92 25.9383 80.2377 25.7136L81.0486 27.0326C80.3724 27.5529 79.5447 27.8379 78.6915 27.8443C77.0088 27.8443 76.1979 27.0209 76.1979 25.2164V21.161ZM66.9171 7.92624C67.9692 7.92624 68.3594 8.70673 68.3594 9.72839H65.1001C65.3108 8.55766 66.0148 7.92624 66.9171 7.92624V7.92624ZM66.8562 6.33483C64.6185 6.33483 62.8164 7.92702 62.8164 10.512C62.8164 13.2125 64.4999 14.7891 66.8718 14.7891C68.0604 14.7913 69.2205 14.4248 70.192 13.7401L69.2742 12.3415C68.6006 12.7621 67.8474 13.033 67.0365 13.033C65.9235 13.033 65.289 12.4632 65.097 11.3167H70.2982C70.3567 10.9725 70.4449 10.6127 70.4449 10.0148C70.4449 7.85054 69.1704 6.33483 66.8562 6.33483ZM70.7586 20.9815C71.8076 20.9815 72.1979 21.7619 72.1979 22.7828H68.9385C69.1493 21.6121 69.8564 20.9815 70.7586 20.9815V20.9815ZM70.6978 19.3893C68.4601 19.3893 66.6548 20.9815 66.6548 23.5664C66.6548 26.2677 68.3384 27.8474 70.7134 27.8474C71.9145 27.8474 73.0392 27.4845 74.0304 26.7953L73.1157 25.3959C72.4383 25.8174 71.689 26.0882 70.8773 26.0882C69.7612 26.0882 69.1274 25.5184 68.9385 24.3711H74.1366C74.1975 24.0277 74.2865 23.6671 74.2865 23.07C74.2865 20.905 73.0088 19.39 70.6978 19.39V19.3893ZM62.3255 20.9815C63.3776 20.9815 63.7678 21.7619 63.7678 22.7828H60.5085C60.7192 21.6121 61.4264 20.9815 62.3255 20.9815ZM62.2677 19.3893C60.0301 19.3893 58.2248 20.9815 58.2248 23.5664C58.2248 26.2677 59.9083 27.8474 62.2802 27.8474C63.4845 27.8474 64.6092 27.4845 65.6035 26.7953L64.6857 25.3959C64.009 25.8174 63.2589 26.0882 62.448 26.0882C61.3319 26.0882 60.6982 25.5184 60.5054 24.3711H65.7073C65.7682 24.0277 65.8556 23.6671 65.8556 23.07C65.8556 20.9081 64.5787 19.39 62.2677 19.39V19.3893ZM5.05718 22.0359C7.21913 25.7253 11.2308 28.2041 15.8076 28.1916C22.6525 28.1705 28.2072 22.5877 28.1885 15.7405C28.1705 8.89327 22.5846 3.33854 15.7374 3.35649C8.89249 3.37444 3.33776 8.96273 3.35649 15.8076C3.36035 16.6247 3.444 17.4395 3.60625 18.2404C3.63044 18.3411 3.73425 18.3965 3.83259 18.3715L5.56059 17.9422C5.58492 17.9369 5.60796 17.9268 5.62837 17.9125C5.64878 17.8982 5.66616 17.88 5.67951 17.859C5.69286 17.8379 5.70191 17.8145 5.70615 17.7899C5.71039 17.7653 5.70972 17.7402 5.7042 17.7159H5.70654C5.58425 17.085 5.52206 16.444 5.52079 15.8014C5.50518 10.1491 10.0913 5.53639 15.7436 5.52078C21.399 5.50517 26.0117 10.0944 26.0242 15.7467C26.0422 21.399 21.4537 26.0117 15.8014 26.0273C12.0574 26.0359 8.77074 24.0269 6.97561 21.0267C6.95154 20.9827 6.91165 20.9494 6.86399 20.9336C6.81633 20.9178 6.76445 20.9207 6.71883 20.9417L5.13679 21.7768C5.09193 21.8006 5.05836 21.8413 5.04344 21.8899C5.02852 21.9385 5.03346 21.991 5.05718 22.0359" fill="#282828"/>
<path d="M22.3079 18.4565L23.8845 19.301C23.9782 19.3502 24.103 19.3228 24.1405 19.2222C24.5878 18.1539 24.822 17.0085 24.8297 15.8505C24.8718 10.8561 20.8414 6.76168 15.8478 6.71875H15.7713C10.8199 6.71875 6.75903 10.7461 6.7161 15.6975C6.67708 20.6918 10.7044 24.7894 15.698 24.8292L15.7744 24.8315C18.1401 24.8315 20.2989 23.9106 21.9177 22.4112C21.9973 22.341 22.0121 22.2192 21.9387 22.1396L20.5947 20.9267C20.5151 20.8565 20.3965 20.8721 20.3262 20.9385L20.3231 20.9353C19.0703 22.0504 17.4516 22.6667 15.7744 22.6672H15.7167C11.9149 22.6337 8.85074 19.518 8.88117 15.7162C8.91161 11.948 12.0031 8.8807 15.7713 8.8807H15.8322C19.6308 8.91426 22.6982 12.0331 22.6646 15.8317C22.6581 16.6402 22.5086 17.4411 22.2228 18.1974C22.2017 18.2433 22.1988 18.2956 22.2146 18.3436C22.2303 18.3917 22.2637 18.432 22.3079 18.4565" fill="#282828"/>
<path d="M24.8937 2.90889C24.8078 2.85035 24.6923 2.86596 24.6345 2.95415L23.6215 4.41757C23.5629 4.50342 23.5723 4.62206 23.6581 4.68293C27.1235 7.15552 29.3924 11.2039 29.3893 15.7776C29.3893 23.2835 23.2827 29.3869 15.7768 29.3869C8.27083 29.3869 2.16351 23.2804 2.16351 15.7713C2.16351 8.2685 8.27083 2.16196 15.7799 2.1643C17.3666 2.16302 18.9411 2.44067 20.4316 2.98459C20.4782 3.00125 20.5295 2.99917 20.5746 2.97879C20.6198 2.95841 20.6552 2.92132 20.6736 2.87532L21.3104 1.2043C21.3271 1.15888 21.3255 1.10881 21.3062 1.06449C21.2869 1.02016 21.2512 0.984978 21.2066 0.966251C19.4695 0.325449 17.6323 -0.00171345 15.7807 6.74831e-06C7.07902 -0.0031152 0.00312195 7.07357 0 15.7737C0 24.4722 7.07902 31.552 15.7776 31.552C24.4753 31.552 31.5551 24.4753 31.5551 15.7776C31.5551 10.4703 28.921 5.76859 24.8937 2.90889" fill="#282828"/>
</g>
<defs fill="#282828">
<clipPath id="clip0_416_1234" fill="#282828">
<rect width="81.1707" height="32" fill="#282828"/>
</clipPath>
</defs>
</svg>