<svg width="100" height="32" viewBox="0 0 100 32" fill="none" xmlns="http://www.w3.org/2000/svg">
<path d="M91.3297 27.4246L96.8904 28.3602L97.233 31.8257H88.9842L89.1291 30.508L95.0324 30.2708V29.6383L89.3663 28.6632L89.7089 25.1845H96.5741L96.7059 26.5681L91.4351 26.7657L91.3297 27.4246ZM43.5895 29.0981L43.6686 27.7804H47.4372L47.6612 31.8125H39.0698L39.7418 25.1186H47.2659L47.3581 26.5022L41.5207 26.634L41.3363 30.3103L45.5792 30.4289V29.1112L43.5895 29.0981ZM79.9975 29.1508V30.2972L85.4 30.4289V31.7466H77.7442L77.9682 25.0527H85.2551V26.4363L79.8525 26.5549V27.7277H83.9506V29.0454L79.9975 29.1508Z" fill="#282828"/>
<path d="M57.8071 31.8125H60.1131L58.2815 25.1187H52.8658L51.0474 31.8125H53.3533L53.7091 30.1259H57.4645L57.8071 31.8125ZM53.9858 28.8477L54.447 26.6604L56.6739 26.5549L57.1483 28.7555L53.9858 28.8477Z" fill="#282828"/>
<path d="M74.1601 31.8125L73.4749 25.1187H71.5379L68.7443 28.3075L65.964 25.1187H64.0138L63.3418 31.8125H65.6214L65.8454 27.4773L68.7443 30.429L71.6565 27.4773L71.8805 31.8125H74.1601Z" fill="#282828"/>
<path d="M56.9247 21.3104H50.9292L49.3347 14.0103L45.4739 16.1055L45.3421 21.3104H39.9791L41.6394 4.97094L38.2134 5.08954L38.7141 0.596191H54.0126L56.1341 10.3208L53.0243 12.0074L56.9247 21.3104ZM50.1912 4.69423L45.7901 4.83917L45.6188 11.1905L50.692 8.81862L50.1912 4.69423Z" fill="#282828"/>
<path d="M64.3958 0.596191H59.8366L59.4149 21.3104H64.9361L64.3958 0.596191ZM99.4993 0.596191L99.9736 5.12907L94.3866 4.94459L96.0205 21.3104H90.4994L90.0382 4.78647L85.5448 4.64152L85.4263 0.596191H99.4993Z" fill="#282828"/>
<path d="M68.7575 0.609375H82.9886L84.0033 21.3104H68.1909L68.7575 0.609375ZM73.5408 16.9883L78.5744 16.8302V4.97095L73.3036 4.81283L73.5408 16.9883Z" fill="#282828"/>
<path d="M0 9.37207L19.581 0.148193L31.0318 2.91536L28.9893 23.1684H23.1783L22.0978 8.41015L21.4785 8.60781L20.4507 23.1684H16.0495L13.9544 10.927L13.3351 11.1114L13.4932 23.1684H9.34247L6.94426 13.0748L6.32494 13.2725L7.02332 23.1684H3.07023L0 9.37207ZM14.7846 25.1581L16.2208 28.8608L28.0801 31.7993L28.6994 25.8828L14.7846 25.1581Z" fill="#282828"/>
</svg>
